<svg width="296" height="402" viewBox="0 0 296 402" fill="none" xmlns="http://www.w3.org/2000/svg">
<path d="M205.155 282.591H260.976C263.805 282.591 266.397 280.555 265.912 277.768C265.621 276.098 264.929 274.449 263.528 273.398" stroke="#0000FF" stroke-width="3"/>
<path d="M213.428 347.858C206.228 352.607 192.469 363.117 195.043 367.162C198.261 372.218 215.267 372.218 222.161 363.485C225.715 358.983 229.587 356.276 232.548 354.796C234.772 353.684 236.73 351.759 236.99 349.286C237.333 346.023 237.409 342.422 236.41 341.423" stroke="#0000FF" stroke-width="3"/>
<path d="M231.813 270.641C237.176 267.27 248.36 260.437 250.199 260.069C252.497 259.61 301.217 251.796 288.807 224.218" stroke="#FF7A00" stroke-width="3"/>
<path d="M185.851 262.827L183.553 253.175" stroke="white" stroke-width="3"/>
<path d="M162.41 240.765C163.145 239.662 168.538 244.901 171.143 247.659C178.497 244.595 192.47 240.121 189.528 246.74C185.851 255.013 168.385 255.013 166.087 252.715C163.789 250.417 161.491 242.144 162.41 240.765Z" stroke="#FF0000" stroke-width="3" stroke-linecap="round" stroke-linejoin="round"/>
<path d="M183.553 252.715L230.435 243.063" stroke="#0000FF" stroke-width="3" stroke-linecap="round" stroke-linejoin="round"/>
<path d="M168.845 245.361L200.099 233.87H184.932" stroke="#0000FF" stroke-width="3" stroke-linecap="round" stroke-linejoin="round"/>
<path d="M171.143 229.734L143.565 221.46L161.491 242.603" stroke="#0000FF" stroke-width="3" stroke-linecap="round" stroke-linejoin="round"/>
<path d="M263.068 164.926C268.737 166.612 280.626 171.177 282.832 175.957C285.039 180.737 285.284 194.189 285.13 200.318" stroke="black" stroke-width="3" stroke-linecap="round" stroke-linejoin="round"/>
<path d="M178.497 217.324L171.603 229.734L184.472 233.87C186.464 231.879 190.723 227.16 191.826 224.218" stroke="#FF0000" stroke-width="3"/>
<path d="M219.863 161.709C220.17 159.87 215.451 158.951 194.124 169.982C188.609 184.69 177.669 214.75 178.037 217.324C182.48 219.469 191.642 223.667 192.745 223.299C193.848 222.931 198.414 214.26 200.559 209.97V233.87L229.975 242.144L263.528 230.193V205.833" stroke="black" stroke-width="3" stroke-linecap="round" stroke-linejoin="round"/>
<path d="M245.143 167.684C246.614 168.42 248.207 165.846 248.82 164.467C255.071 161.893 257.553 178.102 258.012 186.529C261.077 200.471 269.779 226.976 280.075 221.461C292.944 214.566 282.832 194.802 280.075 193.423C277.317 192.044 263.528 165.846 258.012 157.572C252.497 149.299 245.143 152.516 243.764 155.274C242.385 158.032 243.304 166.765 245.143 167.684Z" stroke="#FF0000" stroke-width="3"/>
<path d="M214.807 131.374C213.582 132.599 211.498 132.385 212.969 121.721C214.156 113.111 218.221 111.313 221.194 111.586C222.417 111.698 223.709 111.702 224.77 111.084V111.084C227.111 109.718 229.964 109.989 232.527 110.872C233.316 111.144 234.048 111.281 234.571 111.15C236.41 110.69 241.466 107.013 244.223 111.15C246.981 115.287 252.037 112.988 252.497 114.367C252.956 115.746 252.497 119.883 252.497 121.721C252.497 123.56 259.391 128.156 258.472 132.752C257.553 137.349 252.497 141.485 252.497 142.405C252.497 143.324 254.335 149.299 251.118 149.299C247.9 149.299 244.683 147.46 243.304 148.38" stroke="#0000FF" stroke-width="3" stroke-linecap="round" stroke-linejoin="round"/>
<path d="M93.9255 103.796L95.3044 116.665" stroke="#FF0000" stroke-width="3"/>
<path d="M88.8696 132.752L99.4411 136.429C102.658 139.187 110.012 143.048 113.689 136.429C114.6 134.791 115.454 133.419 116.237 132.278C117.733 130.099 117.05 125.366 114.479 124.756C112.129 124.198 109.765 124.055 108.174 124.939C104.037 127.237 109.553 128.616 108.174 129.535C107.071 130.27 102.812 131.986 100.82 132.752" stroke="#FF0000" stroke-width="3"/>
<path d="M16.708 145.622V187.908C36.3188 191.891 79.3092 195.629 94.385 178.715L87.4906 124.939" stroke="#FF7A00" stroke-width="3"/>
<path d="M101.279 132.293L83.354 122.64L128.857 101.957L144.025 111.15L115.988 125.398" stroke="#0000FF" stroke-width="3"/>
<path d="M85.6521 106.554L86.5714 120.343" stroke="#FF7A00" stroke-width="3"/>
<path d="M65.4285 53.6965L67.267 57.8332C73.3953 57.68 86.1117 58.9363 87.9502 65.1872C90.2483 73.0009 96.2235 83.5723 93.9254 103.796C92.3933 105.175 88.5937 107.657 85.6521 106.554C87.1842 102.877 89.7887 94.0518 87.9502 88.1686" stroke="#FF7A00" stroke-width="3" stroke-linecap="round" stroke-linejoin="round"/>
<path d="M5.21729 115.746C7.51542 136.123 17.6272 166.673 39.6893 125.858C45.6645 115.133 58.9017 92.673 64.0496 88.6283C69.1974 84.5836 61.5982 78.3633 57.1552 75.7587C60.6682 71.465 64.8442 64.9835 58.1409 68.0815C54.9151 69.5724 52.0755 71.8701 50.0613 74.7978C47.1351 79.0512 44.362 85.3331 45.6645 91.8457L24.9813 115.746L24.5216 112.069" stroke="#FF0000" stroke-width="3" stroke-linecap="round" stroke-linejoin="round"/>
<path d="M82.4346 22.9015C86.7245 25.6593 94.3849 28.5089 90.7079 17.8456C91.9336 16.9263 94.0172 14.5363 92.5464 12.3301C90.7079 9.5723 83.3539 10.0319 78.298 7.27417C73.2421 4.51641 65.888 -0.99912 54.3974 4.05678C42.9067 9.11268 40.6085 25.1996 44.7452 42.2058" stroke="#0000FF" stroke-width="3"/>
<path d="M55.3166 46.3425C64.8206 52.8766 83.2776 57.7122 83.3985 26.8636C83.4061 24.9237 82.5425 23.0687 80.9545 21.9543C78.0672 19.928 73.9792 17.7534 70.9439 18.3053C66.8992 19.0407 65.888 23.5144 65.888 25.6593C62.6706 23.6676 55.7762 20.8792 53.9377 25.6593C52.0992 30.4394 56.5423 34.6987 58.9936 36.2307C56.8487 38.6821 51.18 43.4009 45.6644 42.6655C44.1323 46.3425 41.3439 54.3401 42.447 56.914C43.8259 60.1314 57.6148 76.2183 63.5899 56.914L65.888 50.9107" stroke="#FF0000" stroke-width="3"/>
<path d="M42.4472 50.4792L37.8509 56.4544C33.1014 56.148 21.0286 57.7414 10.7329 66.5662C8.28157 67.9451 3.10311 79.6196 2 115.287C9.35403 114.674 24.3379 112.989 25.441 111.15C26.8199 108.852 25.441 102.877 25.441 94.6035" stroke="#FF7A00" stroke-width="3"/>
<path d="M95.7639 116.206V105.175L138.969 87.709L144.025 110.69" stroke="#0000FF" stroke-width="3"/>
<path d="M94.385 179.634L102.199 243.982V342.342L75.0807 346.939C72.4266 313.364 66.7838 249.397 62.9315 228.338C62.143 224.027 61.2919 219.63 61.2919 215.249V207.039C61.2919 204.222 60.1778 201.083 57.3943 200.647C55.8855 200.41 54.2793 200.815 53.0186 202.616V247.659C51.6397 262.98 46.1242 302.722 35.0931 339.125C28.5051 339.125 12.2956 338.573 11.1925 336.367C10.0894 334.161 17.1677 273.858 20.8447 243.982C20.8447 227.895 20.2931 193.607 18.0869 188.827" stroke="black" stroke-width="3"/>
<path d="M10.7329 336.367C9.66041 336.827 7.60741 339.86 7.97512 348.317C7.36228 351.995 5.95275 359.624 5.21735 360.727C4.2981 362.106 1.99997 375.435 10.7329 380.951C19.4658 386.467 25.4409 403.013 38.7701 399.796C52.0993 396.578 30.9565 374.516 30.4968 369.46C30.0372 364.404 36.9316 346.939 35.0931 339.585" stroke="#0000FF" stroke-width="3"/>
<path d="M74.6211 346.939V346.939C73.7671 348.647 73.912 350.67 74.6642 352.426C76.6858 357.143 78.5076 365.48 75.5403 374.976C70.9441 389.684 76.9192 389.684 85.6521 392.442C94.385 395.199 119.665 401.175 122.422 392.442C124.279 386.562 114.979 380.92 107.786 377.82C105.549 376.856 103.951 374.766 103.82 372.334L102.199 342.342" stroke="#0000FF" stroke-width="3"/>
<path d="M244.223 154.814C243.304 153.589 241.741 150.678 242.845 148.839V148.839C243.572 147.627 241.329 147.187 240.697 145.923L240.645 145.82C240.08 144.69 240.531 143.32 241.59 142.631C245.431 140.132 250.226 135.578 248.36 130.914C246.693 126.746 243.696 127.565 241.472 129.205C240.299 130.07 238.718 130.364 237.45 129.646C235.072 128.299 232.173 126.777 231.354 126.777C229.995 126.777 227.745 117.408 221.085 122.406C220.887 122.555 220.667 122.69 220.446 122.803C218.675 123.706 215.612 125.974 215.267 129.075C214.017 136.989 213.523 152.301 220.282 155.925C221.544 156.601 222.742 157.687 222.612 159.113C222.465 160.735 221.983 162.189 220.782 161.709C218.484 160.79 223.54 184.69 232.733 185.15C240.087 185.518 246.215 171.821 248.36 164.926" stroke="#FF0000" stroke-width="3" stroke-linecap="round" stroke-linejoin="round"/>
<path d="M165.627 253.175L159.652 259.15C155.056 259.456 144.576 262.275 139.429 271.1C135.553 277.744 140.181 281.72 144.876 283.129C149.442 284.499 154.205 281.57 158.582 279.682L171.114 274.276C173.325 273.322 173.623 270.166 175.058 268.233C176.79 265.899 181.901 264.91 185 262.5L183.5 252.5" stroke="#0000FF" stroke-width="3"/>
<line x1="209.873" y1="298.097" x2="262.947" y2="298.097" stroke="#0000FF" stroke-width="3" stroke-linecap="round" stroke-linejoin="round"/>
<line x1="266.067" y1="283.5" x2="275.085" y2="390.815" stroke="#0000FF" stroke-width="3" stroke-linecap="round" stroke-linejoin="round"/>
<line x1="189.505" y1="312.259" x2="183.345" y2="379.135" stroke="#0000FF" stroke-width="3" stroke-linecap="round" stroke-linejoin="round"/>
<line x1="196.93" y1="318.633" x2="193.352" y2="393.771" stroke="#0000FF" stroke-width="3" stroke-linecap="round" stroke-linejoin="round"/>
<path d="M188.149 323.957C190.753 329.32 210.303 337.746 267.664 328.554" stroke="#0000FF" stroke-width="3" stroke-linecap="round" stroke-linejoin="round"/>
<path d="M263.528 230.653C272.72 224.984 291.749 217.048 294.323 230.653C297.54 247.659 256.174 295.001 231.814 270.181C220.17 271.407 196.055 273.858 192.745 273.858C189.436 273.858 187.077 267.423 186.31 264.206C186.004 262.061 183.645 260.988 176.658 273.858C167.925 289.945 180.795 300.516 192.745 313.386C202.305 323.681 210.517 340.351 213.428 347.398C221.518 352.178 232.426 345.406 236.869 341.423C234.725 332.69 227.401 313.294 215.267 305.572C200.099 295.92 201.478 287.647 203.317 283.97C204.787 281.028 222.008 273.551 230.435 270.181" stroke="#FF7A00" stroke-width="3"/>
</svg>
