<svg width="797" height="423" viewBox="0 0 797 423" fill="none" xmlns="http://www.w3.org/2000/svg">
<mask id="path-1-inside-1" fill="white">
<path fill-rule="evenodd" clip-rule="evenodd" d="M650.364 77.9375C638.794 77.9375 629.416 87.3163 629.416 98.8856V100.929C628.349 100.552 627.201 100.347 626.006 100.347C620.355 100.347 615.775 104.927 615.775 110.578C615.775 116.228 620.355 120.808 626.006 120.808C626.742 120.808 627.46 120.73 628.153 120.582C627.705 122.37 627.467 124.24 627.467 126.167V130.064C627.467 142.71 637.718 152.961 650.364 152.961C663.009 152.961 673.26 142.71 673.26 130.064V126.167C673.26 123.983 672.955 121.87 672.383 119.869C673.687 120.472 675.14 120.808 676.671 120.808C682.321 120.808 686.901 116.228 686.901 110.578C686.901 104.927 682.321 100.347 676.671 100.347C674.706 100.347 672.87 100.901 671.312 101.861V98.8856C671.312 87.3163 661.933 77.9375 650.364 77.9375Z"/>
</mask>
<path d="M629.416 100.929L628.083 104.701C629.307 105.133 630.665 104.945 631.725 104.195C632.785 103.445 633.416 102.228 633.416 100.929H629.416ZM628.153 120.582L632.033 121.555C632.368 120.215 631.99 118.797 631.03 117.804C630.071 116.811 628.668 116.382 627.317 116.671L628.153 120.582ZM672.383 119.869L674.062 116.238C672.642 115.582 670.97 115.813 669.782 116.83C668.594 117.847 668.108 119.463 668.537 120.967L672.383 119.869ZM671.312 101.861H667.312C667.312 103.311 668.096 104.647 669.361 105.354C670.627 106.06 672.176 106.027 673.41 105.267L671.312 101.861ZM633.416 98.8856C633.416 89.5254 641.004 81.9375 650.364 81.9375V73.9375C636.585 73.9375 625.416 85.1071 625.416 98.8856H633.416ZM633.416 100.929V98.8856H625.416V100.929H633.416ZM626.006 104.347C626.741 104.347 627.438 104.473 628.083 104.701L630.749 97.1579C629.26 96.6317 627.662 96.3471 626.006 96.3471V104.347ZM619.775 110.578C619.775 107.137 622.565 104.347 626.006 104.347V96.3471C618.146 96.3471 611.775 102.718 611.775 110.578H619.775ZM626.006 116.808C622.565 116.808 619.775 114.019 619.775 110.578H611.775C611.775 118.437 618.146 124.808 626.006 124.808V116.808ZM627.317 116.671C626.898 116.76 626.46 116.808 626.006 116.808V124.808C627.025 124.808 628.023 124.7 628.988 124.494L627.317 116.671ZM631.467 126.167C631.467 124.571 631.664 123.027 632.033 121.555L624.273 119.61C623.746 121.713 623.467 123.91 623.467 126.167H631.467ZM631.467 130.064V126.167H623.467V130.064H631.467ZM650.364 148.961C639.927 148.961 631.467 140.5 631.467 130.064H623.467C623.467 144.919 635.509 156.961 650.364 156.961V148.961ZM669.26 130.064C669.26 140.5 660.8 148.961 650.364 148.961V156.961C665.218 156.961 677.26 144.919 677.26 130.064H669.26ZM669.26 126.167V130.064H677.26V126.167H669.26ZM668.537 120.967C669.007 122.614 669.26 124.358 669.26 126.167H677.26C677.26 123.608 676.902 121.125 676.23 118.771L668.537 120.967ZM676.671 116.808C675.731 116.808 674.85 116.603 674.062 116.238L670.705 123.5C672.524 124.341 674.549 124.808 676.671 124.808V116.808ZM682.901 110.578C682.901 114.019 680.112 116.808 676.671 116.808V124.808C684.53 124.808 690.901 118.437 690.901 110.578H682.901ZM676.671 104.347C680.112 104.347 682.901 107.137 682.901 110.578H690.901C690.901 102.718 684.53 96.3471 676.671 96.3471V104.347ZM673.41 105.267C674.356 104.684 675.468 104.347 676.671 104.347V96.3471C673.944 96.3471 671.385 97.1181 669.213 98.4559L673.41 105.267ZM667.312 98.8856V101.861H675.312V98.8856H667.312ZM650.364 81.9375C659.724 81.9375 667.312 89.5254 667.312 98.8856H675.312C675.312 85.1071 664.142 73.9375 650.364 73.9375V81.9375Z" fill="#FF0000" mask="url(#path-1-inside-1)"/>
<circle cx="661.082" cy="116.423" r="7.25611" stroke="#FF7A00" stroke-width="4"/>
<circle cx="639.646" cy="116.423" r="7.25611" stroke="#FF7A00" stroke-width="4"/>
<g filter="url(#filter0_dd)">
<line x1="647.928" y1="113.488" x2="652.8" y2="113.488" stroke="white"/>
</g>
<circle cx="661.082" cy="118.372" r="2.43582" fill="#0000FF"/>
<circle cx="639.646" cy="118.372" r="2.43582" fill="#0000FF"/>
<path d="M650.364 117.885L652.117 125.598C652.504 127.303 651.535 129.024 649.877 129.577V129.577" stroke="#0000FF" stroke-width="4"/>
<path d="M637.21 133.141L637.355 133.141C641.66 133.141 645.151 136.632 645.151 140.937V140.937" stroke="#0000FF" stroke-width="4"/>
<path d="M630.39 101.808C632.501 99.2101 637.21 94.2086 639.159 94.988C641.595 95.9624 647.928 101.808 650.364 101.808C652.8 101.808 659.133 94.988 660.594 94.988C662.056 94.988 664.004 95.4751 670.338 101.808" stroke="#0000FF" stroke-width="4" stroke-linecap="round" stroke-linejoin="round"/>
<path d="M630.877 141.756C628.117 146.952 622.401 157.54 621.621 158.319C620.647 159.294 634.775 161.73 636.723 161.242C638.282 160.853 655.723 157.345 655.723 152.473" stroke="#FF0000" stroke-width="4" stroke-linecap="round" stroke-linejoin="round"/>
<path d="M525.163 143.218L612.852 167.576L707.362 143.218V188.524" stroke="#0000FF" stroke-width="4"/>
<path d="M613.339 168.063V264.521" stroke="#0000FF" stroke-width="3"/>
<path d="M510.061 57.4765L601.16 34.0926C600.511 42.3744 602.817 57.3791 617.237 51.1434C613.339 56.5022 606.714 67.6095 611.391 69.1684C617.237 71.1171 631.852 59.9123 635.262 54.0664C638.672 48.2204 638.672 75.0144 649.39 75.0144C660.107 75.0144 650.851 41.8873 643.056 28.7338C635.262 15.5804 627.467 -1.47032 590.443 3.40132C553.418 8.27296 497.394 -12.188 464.267 24.3493C437.766 53.5792 451.601 76.8007 461.831 84.7577" stroke="#FF0000" stroke-width="4" stroke-linecap="round" stroke-linejoin="round"/>
<line x1="604.726" y1="34.8649" x2="612.521" y2="45.5825" stroke="#FF0000" stroke-width="4"/>
<line x1="634.255" y1="40.3381" x2="637.177" y2="50.0814" stroke="#FF0000" stroke-width="4"/>
<path d="M701.516 231.881C710.09 245.522 721.652 242.112 726.361 238.702C726.361 266.554 729.996 286.342 733.756 298.638C736.606 307.959 743.834 315.528 753.371 317.542C779.703 323.103 785.717 294.121 778.975 268.418C771.181 238.701 726.361 196.805 701.516 184.626C676.671 172.447 654.261 172.934 654.261 178.293C654.261 182.58 671.799 188.848 680.568 191.447C671.961 189.985 654.651 188.426 654.261 193.883C653.871 199.339 671.637 204.6 680.568 206.549C674.722 205.412 662.738 204.795 661.569 211.42C660.399 218.046 665.953 219.377 668.876 219.215C676.184 217.753 692.942 218.241 701.516 231.881Z" stroke="#FF0000" stroke-width="4"/>
<path d="M626.006 283.033L521.753 138.833C515.419 128.927 493.789 112.331 457.934 125.192C422.079 138.053 389.731 161.405 378.039 171.473L464.754 233.343L553.418 361.467C565.597 372.996 597.653 389.625 628.441 363.903C634.612 357.245 650.266 331.75 663.517 283.033" stroke="black" stroke-width="4"/>
<path d="M378.526 171.473C363.313 160.709 330.392 147.205 307.881 168.158C301.615 173.99 296.58 181.849 294.669 190.192C292.087 201.463 289.575 221.937 288.888 256.727V333.211H388.757V303.494C422.696 327.365 491.841 375.4 496.907 376.569C501.974 377.738 556.828 377.056 583.623 376.569" stroke="black" stroke-width="4"/>
<path d="M290.35 218.241L277.683 226.035L288.401 244.548" stroke="black" stroke-width="4" stroke-linecap="round" stroke-linejoin="round"/>
<path d="M286.452 242.599C277.521 249.094 254.592 256.337 234.326 233.343C208.993 204.6 202.66 197.78 192.43 194.37C184.245 191.641 173.106 195.831 168.559 198.267L214.352 285.469L253.812 309.34L231.89 321.519L246.992 347.339L286.452 324.93" stroke="#FF7A00" stroke-width="4" stroke-linecap="round" stroke-linejoin="round"/>
<path d="M313.734 335.16C312.759 351.074 297.17 383.487 242.608 385.825C235.463 386.8 220.198 394.594 216.301 417.978H318.605L354.655 397.517V417.978H384.86V335.16" stroke="#FF7A00" stroke-width="4"/>
<path d="M393.141 419.439L401.423 376.569H687.876L721.49 290.341" stroke="#0000FF" stroke-width="4"/>
<path d="M464.754 357.083L457.447 376.569L467.19 418.952" stroke="#0000FF" stroke-width="4"/>
<path d="M663.517 284.008H716.131" stroke="#0000FF" stroke-width="4"/>
<path d="M620.647 157.832C605.22 157.02 569.884 149.648 551.957 126.654C534.029 103.66 516.231 71.2794 509.574 57.9636C491.386 68.5188 454.621 90.1164 453.063 92.0651C451.504 94.0138 463.131 112.039 469.139 120.808M625.519 282.546H663.517L667.902 268.906M693.722 260.624L730.746 298.135" stroke="#FF7A00" stroke-width="4"/>
<path d="M625.031 280.11L706.875 256.726V240.163" stroke="#0000FF" stroke-width="3"/>
<path d="M392.654 418.952H698.106" stroke="black" stroke-width="3"/>
<path d="M632.826 377.543L623.57 418.465" stroke="#0943D7" stroke-width="4"/>
<path d="M687.875 377.056L697.619 418.952" stroke="#0000FF" stroke-width="4"/>
<circle cx="88.1766" cy="390.209" r="28.6913" stroke="#0000FF" stroke-width="4"/>
<path d="M103.003 338.865L88.6638 356.363L74.3251 338.865H103.003Z" stroke="#0000FF" stroke-width="4"/>
<line x1="54.4678" y1="299.11" x2="87.6895" y2="332.332" stroke="black" stroke-width="4" stroke-linecap="round"/>
<path d="M65.2799 260.624C64.6303 266.957 66.9362 282.156 81.3563 292.289C95.7763 302.422 91.9115 323.468 88.1766 332.724" stroke="black" stroke-width="4" stroke-linecap="round" stroke-linejoin="round"/>
<path d="M108.15 285.956C104.74 288.23 96.1662 300.864 89.1511 333.211" stroke="black" stroke-width="4" stroke-linecap="round"/>
<mask id="path-36-inside-2" fill="white">
<path fill-rule="evenodd" clip-rule="evenodd" d="M38.0232 228.474C38.0071 228.313 37.9988 228.15 37.9988 227.984V210.446C37.9988 207.756 40.1799 205.575 42.8705 205.575C44.8744 205.575 46.5958 206.785 47.3438 208.514C48.2278 206.77 50.0376 205.574 52.1266 205.574C54.1465 205.574 55.9054 206.692 56.8187 208.343C57.4621 206.721 59.045 205.574 60.8956 205.574C62.7462 205.574 64.3291 206.721 64.9725 208.343C65.8858 206.692 67.6447 205.574 69.6646 205.574C71.8262 205.574 73.6889 206.854 74.5362 208.698C75.3835 206.854 77.2462 205.574 79.4078 205.574C81.5694 205.574 83.4322 206.854 84.2794 208.698C85.1267 206.854 86.9894 205.574 89.1511 205.574C92.1107 205.574 94.5099 207.974 94.5099 210.933V227.497C94.5099 227.726 94.4956 227.951 94.4678 228.172C94.4956 228.593 94.5098 229.018 94.5098 229.446V241.137C94.5098 251.63 86.0032 260.137 75.5098 260.137H56.9988C46.5054 260.137 37.9988 251.63 37.9988 241.137V229.446C37.9988 229.12 38.007 228.796 38.0232 228.474Z"/>
</mask>
<path d="M38.0232 228.474L42.0181 228.676C42.0282 228.476 42.0233 228.276 42.0034 228.077L38.0232 228.474ZM47.3438 208.514L43.6726 210.102C44.2884 211.526 45.6717 212.465 47.2221 212.512C48.7725 212.559 50.2104 211.706 50.9116 210.322L47.3438 208.514ZM56.8187 208.343L53.3187 210.279C54.0677 211.633 55.53 212.433 57.0738 212.334C58.6176 212.236 59.9661 211.256 60.5367 209.818L56.8187 208.343ZM64.9725 208.343L61.2545 209.818C61.8251 211.256 63.1736 212.236 64.7174 212.334C66.2612 212.433 67.7235 211.633 68.4724 210.279L64.9725 208.343ZM74.5362 208.698L70.9017 210.368C71.5543 211.788 72.9737 212.698 74.5362 212.698C76.0986 212.698 77.518 211.788 78.1706 210.368L74.5362 208.698ZM84.2794 208.698L80.645 210.368C81.2975 211.788 82.717 212.698 84.2794 212.698C85.8419 212.698 87.2614 211.788 87.9139 210.368L84.2794 208.698ZM94.4678 228.172L90.499 227.673C90.4672 227.926 90.4596 228.182 90.4765 228.436L94.4678 228.172ZM42.0034 228.077C42.0005 228.047 41.9988 228.017 41.9988 227.984H33.9988C33.9988 228.283 34.0137 228.579 34.043 228.872L42.0034 228.077ZM41.9988 227.984V210.446H33.9988V227.984H41.9988ZM41.9988 210.446C41.9988 209.965 42.3891 209.575 42.8705 209.575V201.575C37.9708 201.575 33.9988 205.547 33.9988 210.446H41.9988ZM42.8705 209.575C43.2228 209.575 43.5352 209.784 43.6726 210.102L51.015 206.926C49.6564 203.785 46.5261 201.575 42.8705 201.575V209.575ZM50.9116 210.322C51.1408 209.87 51.6027 209.574 52.1266 209.574V201.574C48.4725 201.574 45.3148 203.669 43.7759 206.705L50.9116 210.322ZM52.1266 209.574C52.6335 209.574 53.0815 209.85 53.3187 210.279L60.3186 206.406C58.7294 203.534 55.6596 201.574 52.1266 201.574V209.574ZM60.5367 209.818C60.5959 209.669 60.7396 209.574 60.8956 209.574V201.574C57.3503 201.574 54.3283 203.773 53.1007 206.867L60.5367 209.818ZM60.8956 209.574C61.0516 209.574 61.1953 209.669 61.2545 209.818L68.6905 206.867C67.4628 203.773 64.4409 201.574 60.8956 201.574V209.574ZM68.4724 210.279C68.7097 209.85 69.1577 209.574 69.6646 209.574V201.574C66.1316 201.574 63.0619 203.534 61.4726 206.406L68.4724 210.279ZM69.6646 209.574C70.2066 209.574 70.6828 209.892 70.9017 210.368L78.1706 207.027C76.695 203.817 73.4458 201.574 69.6646 201.574V209.574ZM78.1706 210.368C78.3895 209.892 78.8658 209.574 79.4078 209.574V201.574C75.6265 201.574 72.3774 203.817 70.9017 207.027L78.1706 210.368ZM79.4078 209.574C79.9498 209.574 80.426 209.892 80.645 210.368L87.9139 207.027C86.4383 203.817 83.1891 201.574 79.4078 201.574V209.574ZM87.9139 210.368C88.1329 209.892 88.6091 209.574 89.1511 209.574V201.574C85.3698 201.574 82.1206 203.817 80.645 207.027L87.9139 210.368ZM89.1511 209.574C89.9016 209.574 90.5099 210.183 90.5099 210.933H98.5099C98.5099 205.765 94.3198 201.574 89.1511 201.574V209.574ZM90.5099 210.933V227.497H98.5099V210.933H90.5099ZM90.5099 227.497C90.5099 227.558 90.5061 227.617 90.499 227.673L98.4365 228.671C98.4851 228.285 98.5099 227.893 98.5099 227.497H90.5099ZM90.4765 228.436C90.4986 228.77 90.5098 229.106 90.5098 229.446H98.5098C98.5098 228.93 98.4927 228.417 98.459 227.908L90.4765 228.436ZM90.5098 229.446V241.137H98.5098V229.446H90.5098ZM90.5098 241.137C90.5098 249.421 83.7941 256.137 75.5098 256.137V264.137C88.2124 264.137 98.5098 253.839 98.5098 241.137H90.5098ZM75.5098 256.137H56.9988V264.137H75.5098V256.137ZM56.9988 256.137C48.7145 256.137 41.9988 249.421 41.9988 241.137H33.9988C33.9988 253.839 44.2962 264.137 56.9988 264.137V256.137ZM41.9988 241.137V229.446H33.9988V241.137H41.9988ZM41.9988 229.446C41.9988 229.187 42.0053 228.93 42.0181 228.676L34.0283 228.273C34.0087 228.662 33.9988 229.053 33.9988 229.446H41.9988Z" fill="#FF0000" mask="url(#path-36-inside-2)"/>
<mask id="path-38-inside-3" fill="white">
<path fill-rule="evenodd" clip-rule="evenodd" d="M148.426 246.332C146.993 244.909 144.957 244.463 143.146 244.991C143.832 243.387 143.516 241.458 142.203 240.154C140.889 238.85 138.958 238.549 137.359 239.246C137.874 237.432 137.413 235.399 135.979 233.976C134.497 232.505 132.371 232.078 130.515 232.693C131.202 230.938 130.833 228.868 129.411 227.456C127.501 225.56 124.417 225.572 122.521 227.481L110.166 239.928C110.05 240.044 109.942 240.165 109.84 240.289C109.601 240.507 109.366 240.732 109.135 240.965L100.899 249.261C93.5063 256.708 93.5503 268.738 100.997 276.131L114.135 289.172C121.582 296.565 133.612 296.521 141.004 289.074L149.241 280.777C149.542 280.473 149.832 280.162 150.108 279.843C150.284 279.706 150.453 279.556 150.614 279.394L162.283 267.639C164.368 265.539 164.356 262.146 162.255 260.061C160.721 258.538 158.498 258.134 156.598 258.845C157.295 256.94 156.875 254.719 155.341 253.196C153.807 251.673 151.583 251.269 149.683 251.981C150.38 250.075 149.96 247.855 148.426 246.332Z"/>
</mask>
<path d="M143.146 244.991L139.468 243.418C138.86 244.841 139.127 246.486 140.153 247.644C141.179 248.801 142.78 249.264 144.265 248.831L143.146 244.991ZM137.359 239.246L133.511 238.155C133.089 239.643 133.563 241.241 134.728 242.259C135.893 243.277 137.541 243.531 138.958 242.913L137.359 239.246ZM130.515 232.693L126.79 231.234C126.225 232.678 126.545 234.319 127.612 235.444C128.679 236.57 130.3 236.977 131.773 236.49L130.515 232.693ZM122.521 227.481L125.36 230.299L122.521 227.481ZM110.166 239.928L107.327 237.11L110.166 239.928ZM109.84 240.289L112.533 243.247C112.68 243.113 112.817 242.968 112.943 242.814L109.84 240.289ZM141.004 289.074L143.843 291.892L141.004 289.074ZM149.241 280.777L146.402 277.959L149.241 280.777ZM150.108 279.843L147.643 276.693C147.442 276.851 147.257 277.027 147.09 277.219L150.108 279.843ZM156.598 258.845L152.841 257.47C152.304 258.937 152.671 260.583 153.78 261.684C154.888 262.784 156.537 263.139 158 262.591L156.598 258.845ZM149.683 251.981L145.927 250.606C145.39 252.073 145.756 253.719 146.865 254.819C147.974 255.92 149.622 256.275 151.085 255.727L149.683 251.981ZM144.265 248.831C144.736 248.694 145.248 248.813 145.608 249.171L151.244 243.493C148.737 241.004 145.178 240.232 142.027 241.15L144.265 248.831ZM139.385 242.993C139.495 243.103 139.531 243.271 139.468 243.418L146.824 246.563C148.132 243.502 147.537 239.813 145.021 237.315L139.385 242.993ZM138.958 242.913C139.106 242.849 139.274 242.883 139.385 242.993L145.021 237.315C142.505 234.818 138.811 234.249 135.76 235.58L138.958 242.913ZM133.161 236.815C133.521 237.172 133.645 237.683 133.511 238.155L141.207 240.338C142.103 237.18 141.305 233.627 138.798 231.138L133.161 236.815ZM131.773 236.49C132.254 236.33 132.79 236.446 133.161 236.815L138.798 231.138C136.205 228.563 132.488 227.825 129.258 228.895L131.773 236.49ZM126.593 230.295C126.843 230.543 126.917 230.912 126.79 231.234L134.24 234.151C135.487 230.965 134.823 227.192 132.229 224.617L126.593 230.295ZM125.36 230.299C125.699 229.958 126.251 229.956 126.593 230.295L132.229 224.617C128.752 221.165 123.134 221.186 119.682 224.663L125.36 230.299ZM113.004 242.746L125.36 230.299L119.682 224.663L107.327 237.11L113.004 242.746ZM112.943 242.814C112.961 242.791 112.982 242.769 113.004 242.746L107.327 237.11C107.118 237.319 106.922 237.538 106.738 237.764L112.943 242.814ZM111.974 243.783C112.157 243.598 112.344 243.42 112.533 243.247L107.148 237.331C106.858 237.595 106.575 237.866 106.296 238.146L111.974 243.783ZM103.738 252.079L111.974 243.783L106.296 238.146L98.0602 246.443L103.738 252.079ZM103.815 273.292C97.9362 267.456 97.9014 257.959 103.738 252.079L98.0602 246.443C89.1111 255.458 89.1645 270.021 98.1794 278.97L103.815 273.292ZM116.953 286.334L103.815 273.292L98.1794 278.97L111.316 292.011L116.953 286.334ZM138.166 286.256C132.329 292.135 122.832 292.17 116.953 286.334L111.316 292.011C120.331 300.96 134.894 300.907 143.843 291.892L138.166 286.256ZM146.402 277.959L138.166 286.256L143.843 291.892L152.079 283.595L146.402 277.959ZM147.09 277.219C146.871 277.471 146.641 277.718 146.402 277.959L152.079 283.595C152.443 283.229 152.792 282.853 153.127 282.468L147.09 277.219ZM147.775 276.576C147.732 276.62 147.688 276.659 147.643 276.693L152.573 282.994C152.88 282.754 153.174 282.493 153.453 282.212L147.775 276.576ZM159.444 264.821L147.775 276.576L153.453 282.212L165.122 270.457L159.444 264.821ZM159.437 262.899C159.97 263.428 159.973 264.288 159.444 264.821L165.122 270.457C168.763 266.789 168.742 260.863 165.073 257.222L159.437 262.899ZM158 262.591C158.491 262.407 159.053 262.517 159.437 262.899L165.073 257.222C162.39 254.558 158.504 253.86 155.195 255.099L158 262.591ZM152.523 256.035C152.907 256.417 153.022 256.978 152.841 257.47L160.354 260.22C161.568 256.902 160.842 253.021 158.159 250.357L152.523 256.035ZM151.085 255.727C151.576 255.543 152.138 255.653 152.523 256.035L158.159 250.357C155.475 247.694 151.589 246.996 148.281 248.235L151.085 255.727ZM145.608 249.171C145.993 249.552 146.107 250.113 145.927 250.606L153.439 253.356C154.654 250.038 153.928 246.157 151.244 243.493L145.608 249.171Z" fill="#FF0000" mask="url(#path-38-inside-3)"/>
<mask id="path-40-inside-4" fill="white">
<path fill-rule="evenodd" clip-rule="evenodd" d="M13.3849 297.052C12.9728 296.832 12.5924 296.536 12.2649 296.166L2.66727 285.31C1.19488 283.645 1.35133 281.101 3.01673 279.629C4.2569 278.532 5.98411 278.339 7.39329 279C6.98559 277.436 7.45161 275.705 8.74496 274.562C9.99529 273.457 11.6957 273.186 13.1643 273.708C12.6751 272.352 13.0274 270.776 14.173 269.763C15.3184 268.75 16.9255 268.594 18.2112 269.245C17.8733 267.724 18.3504 266.07 19.6007 264.964C20.9388 263.781 22.7923 263.554 24.3255 264.232C23.8412 262.627 24.2937 260.815 25.6318 259.632C26.9698 258.449 28.8231 258.222 30.3563 258.9C29.8721 257.295 30.3247 255.483 31.6626 254.301C33.4946 252.681 36.2926 252.853 37.9123 254.685L46.9767 264.938C47.3458 265.355 47.6218 265.823 47.8064 266.315C48.6659 266.999 49.4779 267.766 50.2305 268.618L52.254 270.907C59.2044 278.768 58.4659 290.775 50.6044 297.726L44.094 303.482C36.2325 310.432 24.225 309.694 17.2746 301.832L15.2511 299.543C14.5512 298.752 13.9294 297.918 13.3849 297.052Z"/>
</mask>
<path d="M13.3849 297.052L16.7714 294.923C16.4006 294.333 15.8823 293.851 15.2676 293.523L13.3849 297.052ZM7.39329 279L5.69559 282.622C7.10006 283.28 8.75851 283.067 9.95107 282.075C11.1436 281.083 11.6552 279.491 11.2639 277.99L7.39329 279ZM13.1643 273.708L11.8248 277.477C13.2824 277.995 14.9081 277.626 15.9994 276.529C17.0907 275.433 17.4519 273.805 16.9269 272.35L13.1643 273.708ZM18.2112 269.245L16.4031 272.813C17.7829 273.513 19.4422 273.354 20.6641 272.405C21.886 271.456 22.4514 269.888 22.116 268.378L18.2112 269.245ZM24.3255 264.232L22.709 267.891C24.1383 268.522 25.8043 268.263 26.9749 267.228C28.1456 266.194 28.6064 264.572 28.1549 263.076L24.3255 264.232ZM30.3563 258.9L28.7401 262.558C30.1692 263.19 31.8352 262.931 33.0057 261.896C34.1762 260.861 34.6371 259.24 34.1857 257.744L30.3563 258.9ZM47.8064 266.315L44.0608 267.719C44.3152 268.398 44.7493 268.995 45.3167 269.446L47.8064 266.315ZM15.2676 293.523C15.268 293.523 15.2683 293.523 15.2681 293.523C15.268 293.523 15.2658 293.521 15.2616 293.517L9.26814 298.815C9.91627 299.549 10.6757 300.14 11.5022 300.581L15.2676 293.523ZM15.2616 293.517L5.66401 282.661L-0.329468 287.96L9.26814 298.815L15.2616 293.517ZM5.66401 282.661C5.66154 282.658 5.66008 282.656 5.65935 282.655C5.65861 282.654 5.65831 282.654 5.65829 282.654C5.65826 282.654 5.65834 282.654 5.65845 282.654C5.6585 282.654 5.65854 282.654 5.65857 282.654C5.6586 282.654 5.65862 282.654 5.65862 282.654C5.65858 282.654 5.65734 282.65 5.65778 282.643C5.65823 282.636 5.65998 282.632 5.66002 282.631C5.66002 282.631 5.66002 282.632 5.66001 282.632C5.66 282.632 5.65998 282.632 5.65996 282.632C5.65992 282.632 5.65987 282.632 5.6598 282.632C5.65966 282.632 5.65957 282.632 5.6596 282.632C5.65963 282.632 5.65998 282.632 5.66085 282.631C5.6617 282.63 5.66338 282.628 5.66618 282.626L0.367286 276.632C-2.95317 279.568 -3.26511 284.639 -0.329468 287.96L5.66401 282.661ZM5.66618 282.626C5.67023 282.622 5.67253 282.621 5.67307 282.62C5.67367 282.62 5.67364 282.62 5.67318 282.62C5.67213 282.621 5.67268 282.62 5.67568 282.62C5.67914 282.619 5.6838 282.619 5.68861 282.62C5.69322 282.621 5.6955 282.622 5.69559 282.622L9.091 275.378C6.28953 274.065 2.84459 274.442 0.367286 276.632L5.66618 282.626ZM11.2639 277.99C11.2217 277.829 11.2739 277.665 11.3944 277.559L6.09551 271.565C3.62937 273.746 2.74946 277.044 3.52272 280.009L11.2639 277.99ZM11.3944 277.559C11.5111 277.455 11.6718 277.422 11.8248 277.477L14.5038 269.939C11.7195 268.949 8.47945 269.458 6.09551 271.565L11.3944 277.559ZM16.9269 272.35C16.9753 272.484 16.9465 272.65 16.8224 272.76L11.5235 266.766C9.10834 268.902 8.37499 272.219 9.40164 275.065L16.9269 272.35ZM16.8224 272.76C16.6983 272.87 16.5303 272.878 16.4031 272.813L20.0193 265.677C17.3208 264.31 13.9385 264.631 11.5235 266.766L16.8224 272.76ZM22.116 268.378C22.0809 268.22 22.1334 268.064 22.2501 267.961L16.9512 261.968C14.5675 264.075 13.6657 267.228 14.3063 270.113L22.116 268.378ZM22.2501 267.961C22.3748 267.851 22.552 267.821 22.709 267.891L25.942 260.573C23.0326 259.287 19.5028 259.712 16.9512 261.968L22.2501 267.961ZM28.1549 263.076C28.1053 262.911 28.1566 262.739 28.2812 262.629L22.9823 256.636C20.4308 258.891 19.5771 262.343 20.4962 265.388L28.1549 263.076ZM28.2812 262.629C28.4058 262.519 28.583 262.489 28.7401 262.558L31.9725 255.241C29.0632 253.955 25.5337 254.38 22.9823 256.636L28.2812 262.629ZM34.1857 257.744C34.1361 257.58 34.1875 257.407 34.3121 257.297L29.0132 251.304C26.4619 253.559 25.6081 257.01 26.5268 260.055L34.1857 257.744ZM34.3121 257.297C34.489 257.141 34.7591 257.158 34.9155 257.334L40.909 252.036C37.8261 248.549 32.5002 248.221 29.0132 251.304L34.3121 257.297ZM34.9155 257.334L43.9799 267.587L49.9734 262.288L40.909 252.036L34.9155 257.334ZM43.9799 267.587C44.0204 267.633 44.045 267.677 44.0608 267.719L51.552 264.911C51.1987 263.969 50.6711 263.077 49.9734 262.288L43.9799 267.587ZM45.3167 269.446C45.9943 269.985 46.6365 270.592 47.2338 271.267L53.2272 265.968C52.3193 264.941 51.3375 264.013 50.296 263.184L45.3167 269.446ZM47.2338 271.267L49.2573 273.556L55.2508 268.257L53.2272 265.968L47.2338 271.267ZM49.2573 273.556C54.7445 279.762 54.1614 289.242 47.9549 294.729L53.2538 300.723C62.7704 292.309 63.6644 277.774 55.2508 268.257L49.2573 273.556ZM47.9549 294.729L41.4445 300.485L46.7434 306.479L53.2538 300.723L47.9549 294.729ZM41.4445 300.485C35.2381 305.972 25.7585 305.389 20.2713 299.183L14.2778 304.482C22.6915 313.998 37.2269 314.892 46.7434 306.479L41.4445 300.485ZM20.2713 299.183L18.2478 296.894L12.2543 302.193L14.2778 304.482L20.2713 299.183ZM18.2478 296.894C17.6924 296.266 17.2008 295.606 16.7714 294.923L9.99835 299.181C10.658 300.23 11.4101 301.238 12.2543 302.193L18.2478 296.894Z" fill="#FF0000" mask="url(#path-40-inside-4)"/>
<line x1="37.9909" y1="420.849" x2="796.992" y2="417.865" stroke="#0000FF" stroke-width="4"/>
<defs>
<filter id="filter0_dd" x="643.928" y="112.988" width="12.8716" height="9" filterUnits="userSpaceOnUse" color-interpolation-filters="sRGB">
<feFlood flood-opacity="0" result="BackgroundImageFix"/>
<feColorMatrix in="SourceAlpha" type="matrix" values="0 0 0 0 0 0 0 0 0 0 0 0 0 0 0 0 0 0 127 0"/>
<feOffset dy="4"/>
<feGaussianBlur stdDeviation="2"/>
<feColorMatrix type="matrix" values="0 0 0 0 0 0 0 0 0 0 0 0 0 0 0 0 0 0 0.25 0"/>
<feBlend mode="normal" in2="BackgroundImageFix" result="effect1_dropShadow"/>
<feColorMatrix in="SourceAlpha" type="matrix" values="0 0 0 0 0 0 0 0 0 0 0 0 0 0 0 0 0 0 127 0"/>
<feOffset dy="4"/>
<feGaussianBlur stdDeviation="2"/>
<feColorMatrix type="matrix" values="0 0 0 0 0 0 0 0 0 0 0 0 0 0 0 0 0 0 0.25 0"/>
<feBlend mode="normal" in2="effect1_dropShadow" result="effect2_dropShadow"/>
<feBlend mode="normal" in="SourceGraphic" in2="effect2_dropShadow" result="shape"/>
</filter>
</defs>
</svg>
